<?xml version="1.0" encoding="UTF-8" standalone="no"?>
<!DOCTYPE svg PUBLIC "-//W3C//DTD SVG 1.1//EN" "http://www.w3.org/Graphics/SVG/1.1/DTD/svg11.dtd">
<svg width="100%" height="100%" viewBox="0 0 600 600" version="1.1" xmlns="http://www.w3.org/2000/svg" xmlns:xlink="http://www.w3.org/1999/xlink" xml:space="preserve" xmlns:serif="http://www.serif.com/" style="fill-rule:evenodd;clip-rule:evenodd;stroke-linejoin:round;stroke-miterlimit:1.41421;">
    <rect id="Artboard1" x="0" y="0" width="600" height="600" style="fill:none;"/>
    <g id="Artboard11" serif:id="Artboard1">
        <g transform="matrix(1,0,0,1,33.935,-33.935)">
            <g id="Layer1">
                <path d="M524.508,64.921C507.583,89.218 491.613,154.326 476.598,260.248C463.494,353.885 457.352,426.91 458.171,479.325C459.263,531.74 467.862,557.947 483.969,557.947C486.972,557.947 491.271,556.855 496.868,554.671C502.464,552.487 506.764,551.395 509.767,551.395C515.227,551.395 517.957,553.443 517.957,557.538C517.957,560.541 515.909,563.817 511.814,567.366C498.165,579.377 477.281,592.754 449.162,607.496C442.337,611.044 436.468,612.819 431.554,612.819C404.801,612.819 395.246,545.117 402.89,409.712C337.371,413.534 277.704,421.023 219.557,427.848L136.312,524.779C150.78,523.141 253.713,500.661 250.164,500.661C263.268,500.661 273.369,514.038 280.467,540.791C282.377,547.07 283.333,551.984 283.333,555.533C283.333,562.084 280.467,565.36 274.734,565.36C272.004,565.36 267.977,564.678 262.654,563.313C257.33,561.948 253.167,561.265 250.164,561.265C226.96,561.265 98.229,595.347 58.918,620.19C47.179,627.561 41.31,631.246 41.31,631.246C39.126,631.246 35.031,629.199 29.025,625.104C16.195,616.368 7.186,605.858 1.999,593.573C-1.277,585.11 3.5,576.647 16.331,568.185C33.257,557.265 56.461,538.838 85.944,512.903C115.428,486.969 134.674,468.269 143.683,456.803C141.226,431.961 10.755,427.658 10.755,426.566C11.301,411.005 17.171,400.904 28.363,396.264C38.191,392.169 184.905,380.775 210.02,379.41C277.722,296.966 332.185,216.432 373.407,137.81C360.03,144.908 336.006,154.053 301.336,165.246C245.919,183.264 183.151,215.453 162.13,222.823C132.374,233.47 117.496,252.034 117.496,278.514C117.496,283.974 120.208,297.2 121.3,303.752C122.938,313.853 120.344,318.903 113.52,318.903C108.606,318.903 105.057,316.719 102.873,312.351C87.858,280.957 76.82,251.624 74.09,238.793C71.633,227.328 70.404,221.322 70.404,220.776C70.404,211.221 74.909,202.485 83.918,194.569C100.297,180.646 131.419,170.272 177.281,163.447C246.076,153.074 329.864,117.336 379.549,95.223C385.555,89.218 388.831,85.805 389.377,84.986C390.742,83.075 392.175,79.39 393.676,73.93C395.178,68.47 397.839,65.74 401.661,65.74C407.94,65.74 417.358,72.428 429.916,85.805C434.011,90.446 436.059,95.087 436.059,99.728C436.059,102.458 431.418,111.876 422.136,127.983C401.934,163.745 374.908,207.014 341.057,257.791C303.384,314.574 274.173,354.84 253.426,378.591C319.12,374.98 369.312,371.898 406.166,368.623C409.988,330.403 418.314,280.995 431.145,210.29C437.696,175.62 444.248,140.95 450.8,106.28C454.895,76.796 474.687,55.23 510.176,41.58C515.636,39.396 520.14,38.304 523.689,38.304C529.695,38.304 532.698,40.898 532.698,46.085C532.698,50.998 529.968,57.277 524.508,64.921Z" style="fill-rule:nonzero;"/>
            </g>
        </g>
    </g>
</svg>
